<?xml version="1.0" encoding="UTF-8" standalone="no"?>
<!-- Created with Inkscape (http://www.inkscape.org/) -->

<svg
   xmlns:dc="http://purl.org/dc/elements/1.1/"
   xmlns:cc="http://creativecommons.org/ns#"
   xmlns:rdf="http://www.w3.org/1999/02/22-rdf-syntax-ns#"
   xmlns:svg="http://www.w3.org/2000/svg"
   xmlns="http://www.w3.org/2000/svg"
   xmlns:sodipodi="http://sodipodi.sourceforge.net/DTD/sodipodi-0.dtd"
   xmlns:inkscape="http://www.inkscape.org/namespaces/inkscape"
   width="160.78578mm"
   height="42.969749mm"
   viewBox="0 0 569.7134 152.25502"
   id="svg2"
   version="1.1"
   inkscape:version="0.91 r13725"
   sodipodi:docname="logo.svg"
   inkscape:export-filename="C:\Users\alext\Design\riddles4u\logo-white.png"
   inkscape:export-xdpi="90"
   inkscape:export-ydpi="90">
  <defs
     id="defs4" />
  <sodipodi:namedview
     id="base"
     pagecolor="#ffffff"
     bordercolor="#666666"
     borderopacity="1.0"
     inkscape:pageopacity="0.0"
     inkscape:pageshadow="2"
     inkscape:zoom="0.90509668"
     inkscape:cx="350.03326"
     inkscape:cy="23.51923"
     inkscape:document-units="px"
     inkscape:current-layer="layer1"
     showgrid="false"
     inkscape:showpageshadow="false"
     showborder="true"
     inkscape:window-width="1280"
     inkscape:window-height="657"
     inkscape:window-x="-8"
     inkscape:window-y="-8"
     inkscape:window-maximized="1"
     inkscape:snap-text-baseline="true"
     fit-margin-top="10"
     fit-margin-left="10"
     fit-margin-right="10"
     fit-margin-bottom="10" />
  <metadata
     id="metadata7">
    <rdf:RDF>
      <cc:Work
         rdf:about="">
        <dc:format>image/svg+xml</dc:format>
        <dc:type
           rdf:resource="http://purl.org/dc/dcmitype/StillImage" />
        <dc:title></dc:title>
      </cc:Work>
    </rdf:RDF>
  </metadata>
  <g
     inkscape:label="Layer 1"
     inkscape:groupmode="layer"
     id="layer1"
     transform="translate(971.66593,196.27221)">
    <g
       transform="matrix(3.1303413,0,0,3.1303413,1549.2581,-68.905172)"
       style="font-style:normal;font-variant:normal;font-weight:500;font-stretch:normal;font-size:40px;line-height:125%;font-family:Ginva;-inkscape-font-specification:'Ginva Medium';letter-spacing:0px;word-spacing:0px;fill:#ffffff;fill-opacity:1;stroke:none;stroke-width:1px;stroke-linecap:butt;stroke-linejoin:miter;stroke-opacity:1"
       id="flowRoot4133">
      <path
         d="m -781.08,-5.1686719 -2.16,0 -3.12,-5.2400001 c 0.76,-0.12 1.32,-0.2 1.92,-0.36 l 3.36,5.6000001 z m -4,-21.8800001 c 4.12,0.36 5.2,4.72 5.2,7.32 0,2.56 -0.84,6.08 -4.12,7.6 -0.52,0.28 -1.68,0.52 -1.88,0.52 l -6.96,0 0,-15.6 6.48,0 c 0.04,0 0.12,0 0.24,0 l 0.36,0.08 c 0.24,0.04 0.52,0.08 0.68,0.08 z m 6.52,23.0000001 0,-1.12 c -0.36,0 -0.76,0.04 -1.2,-0.04 -1.36,-2.16 -2.36,-3.84 -3.6,-5.9600001 3.64,-1.8 4.6,-6 4.6,-8.52 0,-3.28 -1.32,-8 -6.2,-8.48 -0.24,0 -0.56,-0.08 -0.8,-0.12 -0.24,0 -0.44,-0.04 -0.52,-0.04 l -7.72,0 0,24.2000001 1.16,0 0,-6.3200001 5.12,0 c 0.6,0.9200001 1.56,2.5200001 2.4,3.9200001 0.76,1.32 1.4,2.48 1.48,2.48 l 5.28,0 z"
         style="font-style:normal;font-variant:normal;font-weight:normal;font-stretch:normal;font-family:'Red Moon Rising';-inkscape-font-specification:'Red Moon Rising';fill:#ffffff;fill-opacity:1"
         id="path4141" />
      <path
         d="m -768.66,-4.0886719 0,-1.12 -3.36,0 0,-22.2400001 3.36,0 0,-1.08 -7.88,0 0,1.12 3.36,0 0,22.2400001 -3.36,0 0,1.08 7.88,0 z"
         style="font-style:normal;font-variant:normal;font-weight:normal;font-stretch:normal;font-family:'Red Moon Rising';-inkscape-font-specification:'Red Moon Rising';fill:#ffffff;fill-opacity:1"
         id="path4143" />
      <path
         d="m -750.09812,-8.1686719 c 0,0.2 -0.08,0.24 -0.12,0.4 -2.36,2.2 -4.52,2.6 -6.88,2.6 l -8.56001,0 0,-22.0400001 5.44001,0 c 2.72,0 8.48,0.72 10.08,3.24 l -2,7.84 2.04,7.9600001 z m 0.84,-14.8400001 c 1.59999,1.96 2.28,4.48 2.28,6.6 0,2.04 -0.64,4.8 -2.16,7.3200001 l -1.84,-7.0800001 1.72,-6.84 z m -2.40001,17.6800001 c 4.40001,-2.28 5.80001,-7.6000001 5.80001,-11.0800001 0,-1.04 -0.20001,-2.72 -0.68001,-4.08 -0.24,-0.68 -0.67999,-1.52 -1,-2.08 -2.55999,-4.52 -6.76,-5.32 -10.03999,-5.56 -0.84001,-0.08 -2.48001,-0.2 -2.64,-0.2 l -6.56001,0 0,24.2400001 11.48,0 c 1,0 2.76,-0.76 3.64,-1.24 z"
         style="font-style:normal;font-variant:normal;font-weight:normal;font-stretch:normal;font-family:'Red Moon Rising';-inkscape-font-specification:'Red Moon Rising';fill:#ffffff;fill-opacity:1"
         id="path4145" />
      <path
         d="m -727.36375,-8.1686719 c 0,0.2 -0.08,0.24 -0.12,0.4 -2.36,2.2 -4.52,2.6 -6.88,2.6 l -8.56,0 0,-22.0400001 5.44,0 c 2.72,0 8.48,0.72 10.08,3.24 l -2,7.84 2.04,7.9600001 z m 0.84,-14.8400001 c 1.6,1.96 2.28,4.48 2.28,6.6 0,2.04 -0.64,4.8 -2.16,7.3200001 l -1.84,-7.0800001 1.72,-6.84 z m -2.4,17.6800001 c 4.4,-2.28 5.8,-7.6000001 5.8,-11.0800001 0,-1.04 -0.2,-2.72 -0.68,-4.08 -0.24,-0.68 -0.68,-1.52 -1,-2.08 -2.56,-4.52 -6.76,-5.32 -10.04,-5.56 -0.84,-0.08 -2.48,-0.2 -2.64,-0.2 l -6.56,0 0,24.2400001 11.48,0 c 1,0 2.76,-0.76 3.64,-1.24 z"
         style="font-style:normal;font-variant:normal;font-weight:normal;font-stretch:normal;font-family:'Red Moon Rising';-inkscape-font-specification:'Red Moon Rising';fill:#ffffff;fill-opacity:1"
         id="path4147" />
      <path
         d="m -714.70938,-5.2086719 -5.19999,0 0,-5.2400001 5.19999,5.2400001 z m 7.08001,1.12 0,-1.12 -5.28,0 -7.04001,-7.0000001 0,-16.08 -1.15999,0 0,24.2000001 13.48,0 z"
         style="font-style:normal;font-variant:normal;font-weight:normal;font-stretch:normal;font-family:'Red Moon Rising';-inkscape-font-specification:'Red Moon Rising';fill:#ffffff;fill-opacity:1"
         id="path4149" />
      <path
         d="m -690.24063,-4.1686719 0,-1.12 -14.15999,0 0,-8.2000001 12.67999,0 0,-1.12 -12.67999,0 0,-2.04 12.84,0 0,-1.08 -12.84,0 0,-2.32 12.79999,0 0,-1.12 -12.79999,0 0,-6.16 13.76,0 0,-1.12 -14.88,0 0,24.2800001 15.27999,0 z"
         style="font-style:normal;font-variant:normal;font-weight:normal;font-stretch:normal;font-family:'Red Moon Rising';-inkscape-font-specification:'Red Moon Rising';fill:#ffffff;fill-opacity:1"
         id="path4151" />
      <path
         d="m -675.49875,-12.768672 c 0.44,0.96 0.68,1.88 0.68,2.68 0,3.9600001 -2.92,5.6000001 -6.16,5.6000001 -0.12,0 -1.4,-0.12 -2.44,-0.28 l 7.92,-8.0000001 z m 1.32,5.2800001 c 0.28,-0.64 0.48,-1.76 0.48,-2.5600001 0,-3.36 -2.04,-5.56 -6.36,-7.12 -0.88,-0.32 -1.72,-0.64 -2.48,-0.96 -2.24,-0.96 -4.04,-2.2 -4.04,-4.92 0,-3.52 3.12,-5.2 5.96,-5.2 1.8,0 3.64,0.44 5.6,2.48 l 0.8,-0.72 c -2.04,-2.24 -4.32,-2.88 -6.4,-2.88 -3.44,0 -7.08,2.24 -7.08,6.32 0,2.28 1,3.72 2.6,4.8 0.76,0.52 1.68,1 2.72,1.4 1,0.44 2.08,0.8 3.16,1.2 0.44,0.2 1.12,0.56 1.48,0.76 0.52,0.28 0.96,0.6 1.56,1.16 l -8.52,8.5600001 c -1.04,-0.48 -2.12,-1.08 -2.88,-2.04 -0.16,0.12 -0.32,0.24 -0.44,0.36 l -0.4,0.32 c 1.76,2.36 5.36,3.16 7.48,3.16 2.72,0 5.36,-0.8 6.76,-4.12 z"
         style="font-style:normal;font-variant:normal;font-weight:normal;font-stretch:normal;font-family:'Red Moon Rising';-inkscape-font-specification:'Red Moon Rising';fill:#ffffff;fill-opacity:1"
         id="path4153" />
      <path
         d="m -659.3725,-11.168672 -10.16,0 10.16,-14.2 0,14.2 z m 5.2,1.12 0,-1.12 -4.08,0 0,-17.56 -13.48,18.68 12.4,0 0,6.0000001 1.12,0 0,-6.0000001 4.04,0 z"
         style="font-style:normal;font-variant:normal;font-weight:normal;font-stretch:normal;font-family:'Red Moon Rising';-inkscape-font-specification:'Red Moon Rising';fill:#ffffff;fill-opacity:1"
         id="path4155" />
      <path
         d="m -635.20125,-10.408672 c 0.04,-0.12 0.56,-2.32 0.56,-3 l 0,-15.36 -1.12,0 0,15.28 c 0,0.16 -0.16,1.2 -0.24,1.64 -0.92,4.7600001 -3.96,7.0400001 -7.56,7.0400001 -3.24,0 -6.24,-1.92 -7.36,-6.2400001 -0.2,-0.68 -0.48,-2.4 -0.48,-2.52 l 0,-15.2 -1.12,0 0,15.04 c 0,0.12 0.2,1.56 0.32,2.2 1.12,5.2400001 4.56,7.8400001 8.64,7.8400001 3.48,0 6.92,-2 8.36,-6.7200001 z"
         style="font-style:normal;font-variant:normal;font-weight:normal;font-stretch:normal;font-family:'Red Moon Rising';-inkscape-font-specification:'Red Moon Rising';fill:#ffffff;fill-opacity:1"
         id="path4157" />
    </g>
  </g>
</svg>
